<svg width="16" height="14" viewBox="0 0 16 14" fill="none" xmlns="http://www.w3.org/2000/svg">
<g filter="url(#filter0_d_5104_171)">
<path d="M15 3.87524C15 8.25024 8.51312 11.7915 8.23687 11.9377C8.16406 11.9769 8.08268 11.9974 8 11.9974C7.91732 11.9974 7.83594 11.9769 7.76312 11.9377C7.48687 11.7915 1 8.25024 1 3.87524C1.00116 2.84789 1.40979 1.86294 2.13624 1.13648C2.86269 0.410032 3.84764 0.0014021 4.875 0.000244141C6.16562 0.000244141 7.29562 0.555244 8 1.49337C8.70438 0.555244 9.83438 0.000244141 11.125 0.000244141C12.1524 0.0014021 13.1373 0.410032 13.8638 1.13648C14.5902 1.86294 14.9988 2.84789 15 3.87524Z" fill="#333333"/>
<path d="M8.00293 11.4959L8.00293 11.4958L8.00001 11.4974L7.99707 11.4959C7.87585 11.4317 6.22268 10.5307 4.60738 9.11613C2.96579 7.67849 1.50014 5.82895 1.5 3.87552C1.50108 2.98068 1.85704 2.12279 2.48979 1.49004C3.12255 0.857283 3.98043 0.501329 4.87528 0.500244C6.01967 0.500323 6.99678 0.98997 7.60016 1.79358L8 2.32611L8.39984 1.79358C9.00322 0.98997 9.98034 0.500322 11.1247 0.500244C12.0196 0.501329 12.8775 0.857283 13.5102 1.49004C14.143 2.12286 14.499 2.98086 14.5 3.87581C14.4997 5.82913 13.0341 7.67857 11.3926 9.11613C9.77732 10.5307 8.12415 11.4317 8.00293 11.4959Z" stroke="black"/>
</g>
<defs>
<filter id="filter0_d_5104_171" x="-3" y="0.000244141" width="22" height="19.9971" filterUnits="userSpaceOnUse" color-interpolation-filters="sRGB">
<feFlood flood-opacity="0" result="BackgroundImageFix"/>
<feColorMatrix in="SourceAlpha" type="matrix" values="0 0 0 0 0 0 0 0 0 0 0 0 0 0 0 0 0 0 127 0" result="hardAlpha"/>
<feOffset dy="4"/>
<feGaussianBlur stdDeviation="2"/>
<feComposite in2="hardAlpha" operator="out"/>
<feColorMatrix type="matrix" values="0 0 0 0 0 0 0 0 0 0 0 0 0 0 0 0 0 0 0.25 0"/>
<feBlend mode="normal" in2="BackgroundImageFix" result="effect1_dropShadow_5104_171"/>
<feBlend mode="normal" in="SourceGraphic" in2="effect1_dropShadow_5104_171" result="shape"/>
</filter>
</defs>
</svg>
